<?xml version="1.0" encoding="iso-8859-1"?>
<!-- Generator: Adobe Illustrator 19.0.0, SVG Export Plug-In . SVG Version: 6.00 Build 0)  -->
<svg version="1.1" id="Capa_1" xmlns="http://www.w3.org/2000/svg" xmlns:xlink="http://www.w3.org/1999/xlink" x="0px" y="0px"
	 viewBox="0 0 490.667 490.667" style="enable-background:new 0 0 490.667 490.667;" xml:space="preserve">
<g>
	<path style="fill:#455A64;" d="M245.44,469.333h-0.213c-5.891,0-10.667,4.776-10.667,10.667c0,5.891,4.776,10.667,10.667,10.667
		s10.667-4.776,10.667-10.667c0-5.891-4.776-10.667-10.667-10.667H245.44z"/>
	<path style="fill:#455A64;" d="M245.44,426.667h-0.213c-5.891,0-10.667,4.776-10.667,10.667S239.336,448,245.227,448
		s10.667-4.776,10.667-10.667s-4.776-10.667-10.667-10.667H245.44z"/>
	<path style="fill:#455A64;" d="M245.44,384h-0.213c-5.891,0-10.667,4.776-10.667,10.667c0,5.891,4.776,10.667,10.667,10.667
		s10.667-4.776,10.667-10.667c0-5.891-4.776-10.667-10.667-10.667H245.44z"/>
	<path style="fill:#455A64;" d="M245.44,341.333h-0.213c-5.891,0-10.667,4.776-10.667,10.667c0,5.891,4.776,10.667,10.667,10.667
		s10.667-4.776,10.667-10.667c0-5.891-4.776-10.667-10.667-10.667H245.44z"/>
	<path style="fill:#455A64;" d="M245.44,298.667h-0.213c-5.891,0-10.667,4.776-10.667,10.667S239.336,320,245.227,320
		s10.667-4.776,10.667-10.667s-4.776-10.667-10.667-10.667H245.44z"/>
	<path style="fill:#455A64;" d="M245.44,256h-0.213c-5.891,0-10.667,4.776-10.667,10.667c0,5.891,4.776,10.667,10.667,10.667
		s10.667-4.776,10.667-10.667c0-5.891-4.776-10.667-10.667-10.667H245.44z"/>
	<path style="fill:#455A64;" d="M245.44,213.333h-0.213c-5.891,0-10.667,4.776-10.667,10.667c0,5.891,4.776,10.667,10.667,10.667
		s10.667-4.776,10.667-10.667c0-5.891-4.776-10.667-10.667-10.667H245.44z"/>
	<path style="fill:#455A64;" d="M288.107,426.667h-0.213c-5.891,0-10.667,4.776-10.667,10.667S282.002,448,287.893,448
		s10.667-4.776,10.667-10.667s-4.776-10.667-10.667-10.667H288.107z"/>
	<path style="fill:#455A64;" d="M288.107,384h-0.213c-5.891,0-10.667,4.776-10.667,10.667c0,5.891,4.776,10.667,10.667,10.667
		s10.667-4.776,10.667-10.667c0-5.891-4.776-10.667-10.667-10.667H288.107z"/>
	<path style="fill:#455A64;" d="M288.107,341.333h-0.213c-5.891,0-10.667,4.776-10.667,10.667c0,5.891,4.776,10.667,10.667,10.667
		S298.56,357.891,298.56,352c0-5.891-4.776-10.667-10.667-10.667H288.107z"/>
	<path style="fill:#455A64;" d="M288.107,298.667h-0.213c-5.891,0-10.667,4.776-10.667,10.667S282.002,320,287.893,320
		s10.667-4.776,10.667-10.667s-4.776-10.667-10.667-10.667H288.107z"/>
	<path style="fill:#455A64;" d="M288.107,256h-0.213c-5.891,0-10.667,4.776-10.667,10.667c0,5.891,4.776,10.667,10.667,10.667
		s10.667-4.776,10.667-10.667c0-5.891-4.776-10.667-10.667-10.667H288.107z"/>
	<path style="fill:#455A64;" d="M330.773,384h-0.213c-5.891,0-10.667,4.776-10.667,10.667c0,5.891,4.776,10.667,10.667,10.667
		c5.891,0,10.667-4.776,10.667-10.667c0-5.891-4.776-10.667-10.667-10.667H330.773z"/>
	<path style="fill:#455A64;" d="M330.773,341.333h-0.213c-5.891,0-10.667,4.776-10.667,10.667c0,5.891,4.776,10.667,10.667,10.667
		c5.891,0,10.667-4.776,10.667-10.667c0-5.891-4.776-10.667-10.667-10.667H330.773z"/>
	<path style="fill:#455A64;" d="M330.773,298.667h-0.213c-5.891,0-10.667,4.776-10.667,10.667S324.669,320,330.56,320
		c5.891,0,10.667-4.776,10.667-10.667s-4.776-10.667-10.667-10.667H330.773z"/>
	<path style="fill:#455A64;" d="M330.773,256h-0.213c-5.891,0-10.667,4.776-10.667,10.667c0,5.891,4.776,10.667,10.667,10.667
		c5.891,0,10.667-4.776,10.667-10.667c0-5.891-4.776-10.667-10.667-10.667H330.773z"/>
	<path style="fill:#455A64;" d="M373.44,341.333h-0.213c-5.891,0-10.667,4.776-10.667,10.667c0,5.891,4.776,10.667,10.667,10.667
		c5.891,0,10.667-4.776,10.667-10.667c0-5.891-4.776-10.667-10.667-10.667H373.44z"/>
	<path style="fill:#455A64;" d="M373.44,298.667h-0.213c-5.891,0-10.667,4.776-10.667,10.667S367.336,320,373.227,320
		c5.891,0,10.667-4.776,10.667-10.667s-4.776-10.667-10.667-10.667H373.44z"/>
	<path style="fill:#455A64;" d="M373.44,256h-0.213c-5.891,0-10.667,4.776-10.667,10.667c0,5.891,4.776,10.667,10.667,10.667
		c5.891,0,10.667-4.776,10.667-10.667c0-5.891-4.776-10.667-10.667-10.667H373.44z"/>
	<path style="fill:#455A64;" d="M416.107,298.667h-0.213c-5.891,0-10.667,4.776-10.667,10.667S410.002,320,415.893,320
		s10.667-4.776,10.667-10.667s-4.776-10.667-10.667-10.667H416.107z"/>
	<path style="fill:#455A64;" d="M416.107,256h-0.213c-5.891,0-10.667,4.776-10.667,10.667c0,5.891,4.776,10.667,10.667,10.667
		s10.667-4.776,10.667-10.667c0-5.891-4.776-10.667-10.667-10.667H416.107z"/>
	<path style="fill:#455A64;" d="M458.773,256h-0.213c-5.891,0-10.667,4.776-10.667,10.667c0,5.891,4.776,10.667,10.667,10.667
		c5.891,0,10.667-4.776,10.667-10.667c0-5.891-4.776-10.667-10.667-10.667H458.773z"/>
	<path style="fill:#455A64;" d="M202.773,426.667h-0.213c-5.891,0-10.667,4.776-10.667,10.667S196.669,448,202.56,448
		c5.891,0,10.667-4.776,10.667-10.667s-4.776-10.667-10.667-10.667H202.773z"/>
	<path style="fill:#455A64;" d="M202.773,384h-0.213c-5.891,0-10.667,4.776-10.667,10.667c0,5.891,4.776,10.667,10.667,10.667
		c5.891,0,10.667-4.776,10.667-10.667c0-5.891-4.776-10.667-10.667-10.667H202.773z"/>
	<path style="fill:#455A64;" d="M202.773,341.333h-0.213c-5.891,0-10.667,4.776-10.667,10.667c0,5.891,4.776,10.667,10.667,10.667
		c5.891,0,10.667-4.776,10.667-10.667c0-5.891-4.776-10.667-10.667-10.667H202.773z"/>
	<path style="fill:#455A64;" d="M202.773,298.667h-0.213c-5.891,0-10.667,4.776-10.667,10.667S196.669,320,202.56,320
		c5.891,0,10.667-4.776,10.667-10.667s-4.776-10.667-10.667-10.667H202.773z"/>
	<path style="fill:#455A64;" d="M202.773,256h-0.213c-5.891,0-10.667,4.776-10.667,10.667c0,5.891,4.776,10.667,10.667,10.667
		c5.891,0,10.667-4.776,10.667-10.667c0-5.891-4.776-10.667-10.667-10.667H202.773z"/>
	<path style="fill:#455A64;" d="M160.107,384h-0.213c-5.891,0-10.667,4.776-10.667,10.667c0,5.891,4.776,10.667,10.667,10.667
		s10.667-4.776,10.667-10.667c0-5.891-4.776-10.667-10.667-10.667H160.107z"/>
	<path style="fill:#455A64;" d="M160.107,341.333h-0.213c-5.891,0-10.667,4.776-10.667,10.667c0,5.891,4.776,10.667,10.667,10.667
		S170.56,357.891,170.56,352c0-5.891-4.776-10.667-10.667-10.667H160.107z"/>
	<path style="fill:#455A64;" d="M160.107,298.667h-0.213c-5.891,0-10.667,4.776-10.667,10.667S154.002,320,159.893,320
		s10.667-4.776,10.667-10.667s-4.776-10.667-10.667-10.667H160.107z"/>
	<path style="fill:#455A64;" d="M160.107,256h-0.213c-5.891,0-10.667,4.776-10.667,10.667c0,5.891,4.776,10.667,10.667,10.667
		s10.667-4.776,10.667-10.667c0-5.891-4.776-10.667-10.667-10.667H160.107z"/>
	<path style="fill:#455A64;" d="M117.44,341.333h-0.213c-5.891,0-10.667,4.776-10.667,10.667c0,5.891,4.776,10.667,10.667,10.667
		c5.891,0,10.667-4.776,10.667-10.667c0-5.891-4.776-10.667-10.667-10.667H117.44z"/>
	<path style="fill:#455A64;" d="M117.44,298.667h-0.213c-5.891,0-10.667,4.776-10.667,10.667S111.336,320,117.227,320
		c5.891,0,10.667-4.776,10.667-10.667s-4.776-10.667-10.667-10.667H117.44z"/>
	<path style="fill:#455A64;" d="M117.44,256h-0.213c-5.891,0-10.667,4.776-10.667,10.667c0,5.891,4.776,10.667,10.667,10.667
		c5.891,0,10.667-4.776,10.667-10.667c0-5.891-4.776-10.667-10.667-10.667H117.44z"/>
	<path style="fill:#455A64;" d="M74.773,298.667H74.56c-5.891,0-10.667,4.776-10.667,10.667S68.669,320,74.56,320
		s10.667-4.776,10.667-10.667s-4.776-10.667-10.667-10.667H74.773z"/>
	<path style="fill:#455A64;" d="M74.773,256H74.56c-5.891,0-10.667,4.776-10.667,10.667c0,5.891,4.776,10.667,10.667,10.667
		s10.667-4.776,10.667-10.667c0-5.891-4.776-10.667-10.667-10.667H74.773z"/>
	<path style="fill:#455A64;" d="M32.107,256h-0.213c-5.891,0-10.667,4.776-10.667,10.667c0,5.891,4.776,10.667,10.667,10.667
		s10.667-4.776,10.667-10.667c0-5.891-4.776-10.667-10.667-10.667H32.107z"/>
	<path style="fill:#455A64;" d="M245.44,170.667h-0.213c-5.891,0-10.667,4.776-10.667,10.667c0,5.891,4.776,10.667,10.667,10.667
		s10.667-4.776,10.667-10.667c0-5.891-4.776-10.667-10.667-10.667H245.44z"/>
	<path style="fill:#455A64;" d="M245.44,128h-0.213c-5.891,0-10.667,4.776-10.667,10.667s4.776,10.667,10.667,10.667
		s10.667-4.776,10.667-10.667S251.118,128,245.227,128H245.44z"/>
	<path style="fill:#455A64;" d="M245.44,85.333h-0.213c-5.891,0-10.667,4.776-10.667,10.667c0,5.891,4.776,10.667,10.667,10.667
		s10.667-4.776,10.667-10.667c0-5.891-4.776-10.667-10.667-10.667H245.44z"/>
	<path style="fill:#455A64;" d="M245.44,42.667h-0.213c-5.891,0-10.667,4.776-10.667,10.667S239.336,64,245.227,64
		s10.667-4.776,10.667-10.667s-4.776-10.667-10.667-10.667H245.44z"/>
	<path style="fill:#455A64;" d="M245.44,0h-0.213c-5.891,0-10.667,4.776-10.667,10.667c0.001,5.891,4.778,10.666,10.669,10.665
		c5.891-0.001,10.666-4.778,10.665-10.669C255.892,4.855,251.246,0.116,245.44,0z"/>
	<path style="fill:#455A64;" d="M202.773,213.333h-0.213c-5.891,0-10.667,4.776-10.667,10.667c0,5.891,4.776,10.667,10.667,10.667
		c5.891,0,10.667-4.776,10.667-10.667c0-5.891-4.776-10.667-10.667-10.667H202.773z"/>
	<path style="fill:#455A64;" d="M202.773,170.667h-0.213c-5.891,0-10.667,4.776-10.667,10.667c0,5.891,4.776,10.667,10.667,10.667
		c5.891,0,10.667-4.776,10.667-10.667c0-5.891-4.776-10.667-10.667-10.667H202.773z"/>
	<path style="fill:#455A64;" d="M202.773,128h-0.213c-5.891,0-10.667,4.776-10.667,10.667s4.776,10.667,10.667,10.667
		c5.891,0,10.667-4.776,10.667-10.667S208.451,128,202.56,128H202.773z"/>
	<path style="fill:#455A64;" d="M202.773,85.333h-0.213c-5.891,0-10.667,4.776-10.667,10.667c0,5.891,4.776,10.667,10.667,10.667
		c5.891,0,10.667-4.776,10.667-10.667c0-5.891-4.776-10.667-10.667-10.667H202.773z"/>
	<path style="fill:#455A64;" d="M202.773,42.667h-0.213c-5.891,0-10.667,4.776-10.667,10.667S196.669,64,202.56,64
		c5.891,0,10.667-4.776,10.667-10.667s-4.776-10.667-10.667-10.667H202.773z"/>
	<path style="fill:#455A64;" d="M202.773,0h-0.213c-5.891,0-10.667,4.776-10.667,10.667c0.001,5.891,4.778,10.666,10.669,10.665
		c5.891-0.001,10.666-4.778,10.665-10.669C213.226,4.855,208.579,0.116,202.773,0z"/>
	<path style="fill:#455A64;" d="M288.107,213.333h-0.213c-5.891,0-10.667,4.776-10.667,10.667c0,5.891,4.776,10.667,10.667,10.667
		S298.56,229.891,298.56,224c0-5.891-4.776-10.667-10.667-10.667H288.107z"/>
	<path style="fill:#455A64;" d="M288.107,170.667h-0.213c-5.891,0-10.667,4.776-10.667,10.667c0,5.891,4.776,10.667,10.667,10.667
		s10.667-4.776,10.667-10.667c0-5.891-4.776-10.667-10.667-10.667H288.107z"/>
	<path style="fill:#455A64;" d="M288.107,128h-0.213c-5.891,0-10.667,4.776-10.667,10.667s4.776,10.667,10.667,10.667
		s10.667-4.776,10.667-10.667S293.784,128,287.893,128H288.107z"/>
	<path style="fill:#455A64;" d="M288.107,85.333h-0.213c-5.891,0-10.667,4.776-10.667,10.667c0,5.891,4.776,10.667,10.667,10.667
		S298.56,101.891,298.56,96c0-5.891-4.776-10.667-10.667-10.667H288.107z"/>
	<path style="fill:#455A64;" d="M288.107,42.667h-0.213c-5.891,0-10.667,4.776-10.667,10.667S282.002,64,287.893,64
		s10.667-4.776,10.667-10.667s-4.776-10.667-10.667-10.667H288.107z"/>
	<path style="fill:#455A64;" d="M288.107,0h-0.213c-5.891,0-10.667,4.776-10.667,10.667c0.001,5.891,4.778,10.666,10.669,10.665
		c5.891-0.001,10.666-4.778,10.665-10.669C298.559,4.855,293.913,0.116,288.107,0z"/>
</g>
<path d="M245.44,490.667c-5.891,0-10.667-4.776-10.667-10.667c0-5.891,4.776-10.667,10.667-10.667l0,0
	c5.891,0,10.667,4.776,10.667,10.667C256.107,485.891,251.331,490.667,245.44,490.667z"/>
<path d="M245.44,448c-5.891,0-10.667-4.776-10.667-10.667s4.776-10.667,10.667-10.667l0,0c5.891,0,10.667,4.776,10.667,10.667
	S251.331,448,245.44,448z"/>
<path d="M245.44,405.333c-5.891,0-10.667-4.776-10.667-10.667c0-5.891,4.776-10.667,10.667-10.667l0,0
	c5.891,0,10.667,4.776,10.667,10.667C256.107,400.558,251.331,405.333,245.44,405.333z"/>
<path d="M245.44,362.667c-5.891,0-10.667-4.776-10.667-10.667c0-5.891,4.776-10.667,10.667-10.667l0,0
	c5.891,0,10.667,4.776,10.667,10.667C256.107,357.891,251.331,362.667,245.44,362.667z"/>
<path d="M245.44,320c-5.891,0-10.667-4.776-10.667-10.667s4.776-10.667,10.667-10.667l0,0c5.891,0,10.667,4.776,10.667,10.667
	S251.331,320,245.44,320z"/>
<path d="M245.44,277.333c-5.891,0-10.667-4.776-10.667-10.667c0-5.891,4.776-10.667,10.667-10.667l0,0
	c5.891,0,10.667,4.776,10.667,10.667C256.107,272.558,251.331,277.333,245.44,277.333z"/>
<path d="M245.44,234.667c-5.891,0-10.667-4.776-10.667-10.667c0-5.891,4.776-10.667,10.667-10.667l0,0
	c5.891,0,10.667,4.776,10.667,10.667C256.107,229.891,251.331,234.667,245.44,234.667z"/>
<path d="M288.107,448c-5.891,0-10.667-4.776-10.667-10.667s4.776-10.667,10.667-10.667l0,0c5.891,0,10.667,4.776,10.667,10.667
	S293.998,448,288.107,448z"/>
<path d="M288.107,405.333c-5.891,0-10.667-4.776-10.667-10.667c0-5.891,4.776-10.667,10.667-10.667l0,0
	c5.891,0,10.667,4.776,10.667,10.667C298.773,400.558,293.998,405.333,288.107,405.333z"/>
<path d="M288.107,362.667c-5.891,0-10.667-4.776-10.667-10.667c0-5.891,4.776-10.667,10.667-10.667l0,0
	c5.891,0,10.667,4.776,10.667,10.667C298.773,357.891,293.998,362.667,288.107,362.667z"/>
<path d="M288.107,320c-5.891,0-10.667-4.776-10.667-10.667s4.776-10.667,10.667-10.667l0,0c5.891,0,10.667,4.776,10.667,10.667
	S293.998,320,288.107,320z"/>
<path d="M288.107,277.333c-5.891,0-10.667-4.776-10.667-10.667c0-5.891,4.776-10.667,10.667-10.667l0,0
	c5.891,0,10.667,4.776,10.667,10.667C298.773,272.558,293.998,277.333,288.107,277.333z"/>
<path d="M330.773,405.333c-5.891,0-10.667-4.776-10.667-10.667c0-5.891,4.776-10.667,10.667-10.667l0,0
	c5.891,0,10.667,4.776,10.667,10.667C341.44,400.558,336.664,405.333,330.773,405.333z"/>
<path d="M330.773,362.667c-5.891,0-10.667-4.776-10.667-10.667c0-5.891,4.776-10.667,10.667-10.667l0,0
	c5.891,0,10.667,4.776,10.667,10.667C341.44,357.891,336.664,362.667,330.773,362.667z"/>
<path d="M330.773,320c-5.891,0-10.667-4.776-10.667-10.667s4.776-10.667,10.667-10.667l0,0c5.891,0,10.667,4.776,10.667,10.667
	S336.664,320,330.773,320z"/>
<path d="M330.773,277.333c-5.891,0-10.667-4.776-10.667-10.667c0-5.891,4.776-10.667,10.667-10.667l0,0
	c5.891,0,10.667,4.776,10.667,10.667C341.44,272.558,336.664,277.333,330.773,277.333z"/>
<path d="M373.44,362.667c-5.891,0-10.667-4.776-10.667-10.667c0-5.891,4.776-10.667,10.667-10.667l0,0
	c5.891,0,10.667,4.776,10.667,10.667C384.107,357.891,379.331,362.667,373.44,362.667z"/>
<path d="M373.44,320c-5.891,0-10.667-4.776-10.667-10.667s4.776-10.667,10.667-10.667l0,0c5.891,0,10.667,4.776,10.667,10.667
	S379.331,320,373.44,320z"/>
<path d="M373.44,277.333c-5.891,0-10.667-4.776-10.667-10.667c0-5.891,4.776-10.667,10.667-10.667l0,0
	c5.891,0,10.667,4.776,10.667,10.667C384.107,272.558,379.331,277.333,373.44,277.333z"/>
<path d="M416.107,320c-5.891,0-10.667-4.776-10.667-10.667s4.776-10.667,10.667-10.667l0,0c5.891,0,10.667,4.776,10.667,10.667
	S421.998,320,416.107,320z"/>
<path d="M416.107,277.333c-5.891,0-10.667-4.776-10.667-10.667c0-5.891,4.776-10.667,10.667-10.667l0,0
	c5.891,0,10.667,4.776,10.667,10.667C426.773,272.558,421.998,277.333,416.107,277.333z"/>
<path d="M458.773,277.333c-5.891,0-10.667-4.776-10.667-10.667c0-5.891,4.776-10.667,10.667-10.667l0,0
	c5.891,0,10.667,4.776,10.667,10.667C469.44,272.558,464.664,277.333,458.773,277.333z"/>
<path d="M202.773,448c-5.891,0-10.667-4.776-10.667-10.667s4.776-10.667,10.667-10.667l0,0c5.891,0,10.667,4.776,10.667,10.667
	S208.664,448,202.773,448z"/>
<path d="M202.773,405.333c-5.891,0-10.667-4.776-10.667-10.667c0-5.891,4.776-10.667,10.667-10.667l0,0
	c5.891,0,10.667,4.776,10.667,10.667C213.44,400.558,208.664,405.333,202.773,405.333z"/>
<path d="M202.773,362.667c-5.891,0-10.667-4.776-10.667-10.667c0-5.891,4.776-10.667,10.667-10.667l0,0
	c5.891,0,10.667,4.776,10.667,10.667C213.44,357.891,208.664,362.667,202.773,362.667z"/>
<path d="M202.773,320c-5.891,0-10.667-4.776-10.667-10.667s4.776-10.667,10.667-10.667l0,0c5.891,0,10.667,4.776,10.667,10.667
	S208.664,320,202.773,320z"/>
<path d="M202.773,277.333c-5.891,0-10.667-4.776-10.667-10.667c0-5.891,4.776-10.667,10.667-10.667l0,0
	c5.891,0,10.667,4.776,10.667,10.667C213.44,272.558,208.664,277.333,202.773,277.333z"/>
<path d="M160.107,405.333c-5.891,0-10.667-4.776-10.667-10.667c0-5.891,4.776-10.667,10.667-10.667l0,0
	c5.891,0,10.667,4.776,10.667,10.667C170.773,400.558,165.998,405.333,160.107,405.333z"/>
<path d="M160.107,362.667c-5.891,0-10.667-4.776-10.667-10.667c0-5.891,4.776-10.667,10.667-10.667l0,0
	c5.891,0,10.667,4.776,10.667,10.667C170.773,357.891,165.998,362.667,160.107,362.667z"/>
<path d="M160.107,320c-5.891,0-10.667-4.776-10.667-10.667s4.776-10.667,10.667-10.667l0,0c5.891,0,10.667,4.776,10.667,10.667
	S165.998,320,160.107,320z"/>
<path d="M160.107,277.333c-5.891,0-10.667-4.776-10.667-10.667c0-5.891,4.776-10.667,10.667-10.667l0,0
	c5.891,0,10.667,4.776,10.667,10.667C170.773,272.558,165.998,277.333,160.107,277.333z"/>
<path d="M117.44,362.667c-5.891,0-10.667-4.776-10.667-10.667c0-5.891,4.776-10.667,10.667-10.667l0,0
	c5.891,0,10.667,4.776,10.667,10.667C128.107,357.891,123.331,362.667,117.44,362.667z"/>
<path d="M117.44,320c-5.891,0-10.667-4.776-10.667-10.667s4.776-10.667,10.667-10.667l0,0c5.891,0,10.667,4.776,10.667,10.667
	S123.331,320,117.44,320z"/>
<path d="M117.44,277.333c-5.891,0-10.667-4.776-10.667-10.667c0-5.891,4.776-10.667,10.667-10.667l0,0
	c5.891,0,10.667,4.776,10.667,10.667C128.107,272.558,123.331,277.333,117.44,277.333z"/>
<path d="M74.773,320c-5.891,0-10.667-4.776-10.667-10.667s4.776-10.667,10.667-10.667l0,0c5.891,0,10.667,4.776,10.667,10.667
	S80.664,320,74.773,320z"/>
<path d="M74.773,277.333c-5.891,0-10.667-4.776-10.667-10.667c0-5.891,4.776-10.667,10.667-10.667l0,0
	c5.891,0,10.667,4.776,10.667,10.667C85.44,272.558,80.664,277.333,74.773,277.333z"/>
<path d="M32.107,277.333c-5.891,0-10.667-4.776-10.667-10.667c0-5.891,4.776-10.667,10.667-10.667l0,0
	c5.891,0,10.667,4.776,10.667,10.667C42.773,272.558,37.998,277.333,32.107,277.333z"/>
<path d="M245.44,192c-5.891,0-10.667-4.776-10.667-10.667c0-5.891,4.776-10.667,10.667-10.667l0,0
	c5.891,0,10.667,4.776,10.667,10.667C256.107,187.224,251.331,192,245.44,192z"/>
<path d="M245.44,149.333c-5.891,0-10.667-4.776-10.667-10.667S239.549,128,245.44,128l0,0c5.891,0,10.667,4.776,10.667,10.667
	S251.331,149.333,245.44,149.333z"/>
<path d="M245.44,106.667c-5.891,0-10.667-4.776-10.667-10.667c0-5.891,4.776-10.667,10.667-10.667l0,0
	c5.891,0,10.667,4.776,10.667,10.667C256.107,101.891,251.331,106.667,245.44,106.667z"/>
<path d="M245.44,64c-5.891,0-10.667-4.776-10.667-10.667s4.776-10.667,10.667-10.667l0,0c5.891,0,10.667,4.776,10.667,10.667
	S251.331,64,245.44,64z"/>
<path d="M245.44,21.333c-5.891,0-10.667-4.776-10.667-10.667S239.549,0,245.44,0l0,0c5.891,0,10.667,4.776,10.667,10.667
	S251.331,21.333,245.44,21.333z"/>
<path d="M202.773,234.667c-5.891,0-10.667-4.776-10.667-10.667c0-5.891,4.776-10.667,10.667-10.667l0,0
	c5.891,0,10.667,4.776,10.667,10.667C213.44,229.891,208.664,234.667,202.773,234.667z"/>
<path d="M202.773,192c-5.891,0-10.667-4.776-10.667-10.667c0-5.891,4.776-10.667,10.667-10.667l0,0
	c5.891,0,10.667,4.776,10.667,10.667C213.44,187.224,208.664,192,202.773,192z"/>
<path d="M202.773,149.333c-5.891,0-10.667-4.776-10.667-10.667S196.882,128,202.773,128l0,0c5.891,0,10.667,4.776,10.667,10.667
	S208.664,149.333,202.773,149.333z"/>
<path d="M202.773,106.667c-5.891,0-10.667-4.776-10.667-10.667c0-5.891,4.776-10.667,10.667-10.667l0,0
	c5.891,0,10.667,4.776,10.667,10.667C213.44,101.891,208.664,106.667,202.773,106.667z"/>
<path d="M202.773,64c-5.891,0-10.667-4.776-10.667-10.667s4.776-10.667,10.667-10.667l0,0c5.891,0,10.667,4.776,10.667,10.667
	S208.664,64,202.773,64z"/>
<path d="M202.773,21.333c-5.891,0-10.667-4.776-10.667-10.667S196.882,0,202.773,0l0,0c5.891,0,10.667,4.776,10.667,10.667
	S208.664,21.333,202.773,21.333z"/>
<path d="M288.107,234.667c-5.891,0-10.667-4.776-10.667-10.667c0-5.891,4.776-10.667,10.667-10.667l0,0
	c5.891,0,10.667,4.776,10.667,10.667C298.773,229.891,293.998,234.667,288.107,234.667z"/>
<path d="M288.107,192c-5.891,0-10.667-4.776-10.667-10.667c0-5.891,4.776-10.667,10.667-10.667l0,0
	c5.891,0,10.667,4.776,10.667,10.667C298.773,187.224,293.998,192,288.107,192z"/>
<path d="M288.107,149.333c-5.891,0-10.667-4.776-10.667-10.667S282.216,128,288.107,128l0,0c5.891,0,10.667,4.776,10.667,10.667
	S293.998,149.333,288.107,149.333z"/>
<path d="M288.107,106.667c-5.891,0-10.667-4.776-10.667-10.667c0-5.891,4.776-10.667,10.667-10.667l0,0
	c5.891,0,10.667,4.776,10.667,10.667C298.773,101.891,293.998,106.667,288.107,106.667z"/>
<path d="M288.107,64c-5.891,0-10.667-4.776-10.667-10.667s4.776-10.667,10.667-10.667l0,0c5.891,0,10.667,4.776,10.667,10.667
	S293.998,64,288.107,64z"/>
<path d="M288.107,21.333c-5.891,0-10.667-4.776-10.667-10.667S282.216,0,288.107,0l0,0c5.891,0,10.667,4.776,10.667,10.667
	S293.998,21.333,288.107,21.333z"/>
<g>
</g>
<g>
</g>
<g>
</g>
<g>
</g>
<g>
</g>
<g>
</g>
<g>
</g>
<g>
</g>
<g>
</g>
<g>
</g>
<g>
</g>
<g>
</g>
<g>
</g>
<g>
</g>
<g>
</g>
</svg>
